# xmcd
#
# Track frame offsets:
#	150
#	18605
#	42737
#	57715
#	77885
#	98967
#	118092
#	141792
#	161600
#	184309
#
# Disc length: 2757 seconds
#
# Revision: 364970240
# Processed by: cddbd v1.5.2PL0 Copyright (c) Steve Scherf et al.
# Submitted via: EZCDAudioConverter 8.0.2.1
#
DISCID=950ac30a
DTITLE=Lâm Thúy Vân - Trong Màn Đêm
DYEAR=1999
DGENRE=World Pop
TTITLE0=Lâm Thúy Vân - Trong Màn Đêm
TTITLE1=Lâm Thúy Vân - Tình khúc mong manh
TTITLE2=Gia Huy - Yêu nhau trên biển
TTITLE3=Lâm Thúy Vân - Tình yêu có khi
TTITLE4=Sỹ Đan - Những mảnh vỡ tình yêu
TTITLE5=Lâm Thúy Vân - Đừng nói yêu anh
TTITLE6=Lâm Thúy Vân - Vô tình
TTITLE7=Lê Tâm - It's So Easy
TTITLE8=Thanh Trúc, Vũ Tuấn Đức - Bờ cát trắng
TTITLE9=Lâm Thúy Vân, Lê Tâm - Như mây như mưa
EXTD=
EXTT0=
EXTT1=
EXTT2=
EXTT3=
EXTT4=
EXTT5=
EXTT6=
EXTT7=
EXTT8=
EXTT9=
PLAYORDER=
